<svg width="41" height="41" viewBox="0 0 41 41" fill="none" xmlns="http://www.w3.org/2000/svg">
<g clip-path="url(#clip0)">
<path d="M23.7575 40.7336C23.587 40.7614 23.416 40.787 23.2443 40.8104C23.416 40.787 23.587 40.7614 23.7575 40.7336Z" fill="#FAFAFA"/>
<path d="M24.1668 40.6638C24.0853 40.6788 24.0038 40.6925 23.9224 40.7066C24.0038 40.6925 24.0853 40.6788 24.1668 40.6638Z" fill="#FAFAFA"/>
<path d="M22.7873 40.8674C22.5878 40.8899 22.3871 40.9099 22.1857 40.9267C22.3871 40.9099 22.5878 40.8899 22.7873 40.8674Z" fill="#FAFAFA"/>
<path d="M23.1804 40.8193C23.0845 40.8321 22.9881 40.844 22.8919 40.8552C22.9881 40.844 23.0845 40.8321 23.1804 40.8193Z" fill="#FAFAFA"/>
<path d="M24.7237 40.5532C24.6519 40.5685 24.5798 40.5838 24.5077 40.5985C24.5798 40.5838 24.6519 40.5685 24.7237 40.5532Z" fill="#FAFAFA"/>
<path d="M26.106 40.21C26.048 40.2265 25.9899 40.2421 25.9318 40.2584C25.9899 40.2421 26.048 40.2265 26.106 40.21Z" fill="#FAFAFA"/>
<path d="M25.688 40.3242C25.625 40.3408 25.5616 40.3576 25.4982 40.3735C25.5616 40.3576 25.625 40.3411 25.688 40.3242Z" fill="#FAFAFA"/>
<path d="M25.1411 40.4609C25.0743 40.4765 25.0068 40.4912 24.9394 40.5062C25.0068 40.4912 25.0743 40.4765 25.1411 40.4609Z" fill="#FAFAFA"/>
<path d="M22.1791 40.9272C22.0714 40.9363 21.9637 40.9444 21.8557 40.9516C21.9637 40.9444 22.0714 40.9363 22.1791 40.9272Z" fill="#FAFAFA"/>
<path d="M40.9175 20.5413C40.9175 9.24395 31.7561 0.0825195 20.4588 0.0825195C9.16143 0.0825195 0 9.24395 0 20.5413C0 31.8386 9.16143 41 20.4588 41C20.579 41 20.6985 40.9975 20.8184 40.9954V25.0691H16.423V19.9466H20.8184V16.1771C20.8184 11.8054 23.4872 9.42595 27.3869 9.42595C29.2543 9.42595 30.8595 9.56518 31.3275 9.6273V14.1963H28.6384C26.5168 14.1963 26.106 15.2046 26.106 16.684V19.9466H31.1789L30.5177 25.0691H26.106V40.2096C34.6575 37.7581 40.9175 29.8797 40.9175 20.5413Z" fill="#FAFAFA"/>
<path d="M21.8105 40.9546C21.5976 40.9683 21.3837 40.9793 21.1693 40.9864C21.3837 40.9793 21.5976 40.9683 21.8105 40.9546Z" fill="#FAFAFA"/>
<path d="M21.1583 40.9868C21.0453 40.9906 20.932 40.9934 20.8187 40.9952C20.932 40.9934 21.0453 40.9906 21.1583 40.9868Z" fill="#FAFAFA"/>
</g>
<defs>
<clipPath id="clip0">
<rect width="40.9175" height="40.9175" fill="white" transform="translate(0 0.0825195)"/>
</clipPath>
</defs>
</svg>
