<svg width="41" height="41" viewBox="0 0 41 41" fill="none" xmlns="http://www.w3.org/2000/svg">
<g clip-path="url(#clip0)">
<path d="M24.416 20.5412C24.416 22.7039 22.6628 24.4571 20.5 24.4571C18.3373 24.4571 16.5841 22.7039 16.5841 20.5412C16.5841 18.3784 18.3373 16.6252 20.5 16.6252C22.6628 16.6252 24.416 18.3784 24.416 20.5412Z" fill="#FAFAFA"/>
<path d="M29.658 13.6129C29.4697 13.1028 29.1694 12.6411 28.7792 12.2621C28.4002 11.8719 27.9388 11.5716 27.4284 11.3833C27.0145 11.2226 26.3926 11.0312 25.2472 10.9791C24.0082 10.9226 23.6367 10.9104 20.5 10.9104C17.3629 10.9104 16.9914 10.9223 15.7527 10.9788C14.6073 11.0312 13.9852 11.2226 13.5715 11.3833C13.0611 11.5716 12.5994 11.8719 12.2207 12.2621C11.8305 12.6411 11.5302 13.1025 11.3417 13.6129C11.1809 14.0269 10.9895 14.649 10.9374 15.7944C10.8809 17.0331 10.8687 17.4046 10.8687 20.5417C10.8687 23.6784 10.8809 24.0499 10.9374 25.2889C10.9895 26.4343 11.1809 27.0561 11.3417 27.4701C11.5302 27.9805 11.8302 28.4419 12.2204 28.8209C12.5994 29.2111 13.0608 29.5114 13.5712 29.6996C13.9852 29.8607 14.6073 30.0521 15.7527 30.1042C16.9914 30.1607 17.3626 30.1726 20.4997 30.1726C23.637 30.1726 24.0085 30.1607 25.2469 30.1042C26.3923 30.0521 27.0145 29.8607 27.4284 29.6996C28.453 29.3044 29.2627 28.4946 29.658 27.4701C29.8187 27.0561 30.0101 26.4343 30.0625 25.2889C30.119 24.0499 30.1309 23.6784 30.1309 20.5417C30.1309 17.4046 30.119 17.0331 30.0625 15.7944C30.0104 14.649 29.819 14.0269 29.658 13.6129ZM20.5 26.5738C17.1681 26.5738 14.4672 23.8732 14.4672 20.5413C14.4672 17.2095 17.1681 14.5089 20.5 14.5089C23.8315 14.5089 26.5325 17.2095 26.5325 20.5413C26.5325 23.8732 23.8315 26.5738 20.5 26.5738ZM26.771 15.6801C25.9924 15.6801 25.3612 15.0489 25.3612 14.2703C25.3612 13.4918 25.9924 12.8606 26.771 12.8606C27.5495 12.8606 28.1807 13.4918 28.1807 14.2703C28.1804 15.0489 27.5495 15.6801 26.771 15.6801Z" fill="#FAFAFA"/>
<path d="M20.5 0.0825195C9.20269 0.0825195 0.0412598 9.24395 0.0412598 20.5413C0.0412598 31.8386 9.20269 41 20.5 41C31.7974 41 40.9588 31.8386 40.9588 20.5413C40.9588 9.24395 31.7974 0.0825195 20.5 0.0825195ZM32.177 25.3847C32.1201 26.6353 31.9213 27.4891 31.631 28.2364C31.0207 29.8145 29.7732 31.0619 28.1952 31.6722C27.4481 31.9626 26.594 32.1611 25.3437 32.2182C24.091 32.2754 23.6908 32.2891 20.5003 32.2891C17.3096 32.2891 16.9097 32.2754 15.6566 32.2182C14.4063 32.1611 13.5522 31.9626 12.8052 31.6722C12.021 31.3772 11.3111 30.9149 10.7242 30.3171C10.1267 29.7305 9.6644 29.0203 9.36939 28.2364C9.07907 27.4894 8.88021 26.6353 8.82339 25.385C8.76564 24.1319 8.75222 23.7317 8.75222 20.5413C8.75222 17.3508 8.76564 16.9506 8.82308 15.6979C8.8799 14.4473 9.07844 13.5935 9.36876 12.8461C9.66377 12.0623 10.1264 11.3521 10.7242 10.7655C11.3108 10.1677 12.021 9.70534 12.8049 9.41034C13.5522 9.12001 14.406 8.92147 15.6566 8.86434C16.9094 8.80721 17.3096 8.79348 20.5 8.79348C23.6905 8.79348 24.0907 8.80721 25.3434 8.86465C26.594 8.92147 27.4478 9.12001 28.1952 9.41002C28.979 9.70503 29.6892 10.1677 30.2761 10.7655C30.8736 11.3524 31.3363 12.0623 31.631 12.8461C31.9216 13.5935 32.1201 14.4473 32.1773 15.6979C32.2344 16.9506 32.2478 17.3508 32.2478 20.5413C32.2478 23.7317 32.2344 24.1319 32.177 25.3847Z" fill="#FAFAFA"/>
</g>
<defs>
<clipPath id="clip0">
<rect width="40.9175" height="40.9175" fill="white" transform="translate(0.0412598 0.0825195)"/>
</clipPath>
</defs>
</svg>
