<svg width="41" height="41" viewBox="0 0 41 41" fill="none" xmlns="http://www.w3.org/2000/svg">
<g clip-path="url(#clip0)">
<path d="M10.8303 22.0512H12.4523V30.8303H13.9869V22.0512H15.6391V20.6133H10.8303V22.0512Z" fill="#FAFAFA"/>
<path d="M23.8058 23.1244C23.2985 23.1244 22.8251 23.4015 22.3801 23.9498V20.6128H21.0009V30.8302H22.3801V30.0927C22.8418 30.6624 23.3148 30.9353 23.8058 30.9353C24.3546 30.9353 24.7238 30.6465 24.908 30.0797C25.0005 29.757 25.0478 29.2501 25.0478 28.5456V25.5141C25.0478 24.7933 25.0005 24.2901 24.908 23.9841C24.7242 23.4132 24.3542 23.1244 23.8058 23.1244ZM23.6677 28.6536C23.6677 29.3417 23.466 29.6808 23.0674 29.6808C22.841 29.6808 22.6103 29.5724 22.3797 29.3413V24.7016C22.6103 24.4735 22.841 24.3655 23.0674 24.3655C23.4655 24.3655 23.6677 24.7179 23.6677 25.4044V28.6536Z" fill="#FAFAFA"/>
<path d="M18.4269 29.0353C18.1209 29.4677 17.8316 29.6808 17.5545 29.6808C17.3703 29.6808 17.2653 29.5724 17.2318 29.3581C17.2192 29.3137 17.2192 29.1454 17.2192 28.8222V23.2173H15.8395V29.2362C15.8395 29.7741 15.886 30.1375 15.9613 30.3685C16.0999 30.7545 16.4063 30.9353 16.85 30.9353C17.3578 30.9353 17.8785 30.6289 18.4269 30.0002V30.8307H19.8074V23.2173H18.4269V29.0353Z" fill="#FAFAFA"/>
<path d="M19.6111 16.184C20.0603 16.184 20.2758 15.8278 20.2758 15.1162V11.8801C20.2758 11.168 20.0603 10.8135 19.6111 10.8135C19.1616 10.8135 18.9456 11.1684 18.9456 11.8801V15.1162C18.9456 15.8282 19.1616 16.184 19.6111 16.184Z" fill="#FAFAFA"/>
<path d="M20.5412 0.0825195C9.24212 0.0825195 0.0824585 9.24218 0.0824585 20.5413C0.0824585 31.8404 9.24212 41 20.5412 41C31.8403 41 41 31.8404 41 20.5413C41 9.24218 31.8403 0.0825195 20.5412 0.0825195ZM22.8167 9.65157H24.2068V15.316C24.2068 15.6429 24.2068 15.8124 24.2236 15.8581C24.2541 16.0741 24.3638 16.1846 24.5505 16.1846C24.8293 16.1846 25.1219 15.9686 25.4312 15.532V9.65157H26.8251V17.3449H25.4312V16.506C24.8762 17.1423 24.3471 17.4508 23.8385 17.4508C23.3898 17.4508 23.08 17.2687 22.9402 16.8794C22.8632 16.6463 22.8167 16.2783 22.8167 15.7354V9.65157ZM17.5516 12.1602C17.5516 11.3377 17.6914 10.7366 17.9878 10.3477C18.3733 9.82152 18.9162 9.55864 19.6111 9.55864C20.3093 9.55864 20.8518 9.82152 21.2373 10.3477C21.5295 10.7361 21.6693 11.3377 21.6693 12.1602V14.8543C21.6693 15.6722 21.5295 16.2787 21.2373 16.6634C20.8518 17.1883 20.3093 17.4508 19.6111 17.4508C18.9162 17.4508 18.3733 17.1883 17.9878 16.6634C17.6914 16.2787 17.5516 15.6718 17.5516 14.8543V12.1602ZM13.8236 7.02113L14.9212 11.0752L15.9756 7.02113H17.5391L15.6793 13.164V17.3453H14.1338V13.164C13.9936 12.4231 13.6842 11.3377 13.1882 9.8977C12.8625 8.93954 12.5231 7.97845 12.1974 7.02113H13.8236ZM31.5548 31.5026C31.2752 32.7161 30.2827 33.6119 29.0876 33.7454C26.2567 34.0614 23.3931 34.0631 20.54 34.0614C17.6881 34.0631 14.8228 34.0614 11.9927 33.7454C10.7976 33.6119 9.80471 32.7165 9.52593 31.5026C9.12785 29.7742 9.12785 27.8868 9.12785 26.1069C9.12785 24.327 9.13287 22.44 9.53053 20.7112C9.80974 19.4973 10.8018 18.6015 11.9969 18.4684C14.8274 18.1524 17.6923 18.1507 20.545 18.1524C23.3969 18.1507 26.2617 18.1524 29.0923 18.4684C30.2873 18.6019 31.2802 19.4973 31.5603 20.7112C31.9571 22.44 31.9546 24.327 31.9546 26.1069C31.9546 27.8868 31.9529 29.7742 31.5548 31.5026Z" fill="#FAFAFA"/>
<path d="M28.1994 23.1245C27.4937 23.1245 26.9457 23.3836 26.5472 23.9048C26.2546 24.2899 26.1211 24.8851 26.1211 25.6984V28.3653C26.1211 29.1744 26.2705 29.7739 26.5644 30.1552C26.9625 30.6751 27.5121 30.9351 28.2337 30.9351C28.9541 30.9351 29.5197 30.6625 29.9014 30.1096C30.0688 29.8651 30.1777 29.5884 30.2237 29.2829C30.2367 29.1447 30.253 28.8387 30.253 28.3938V28.1933H28.8461C28.8461 28.7458 28.8281 29.0526 28.816 29.1276C28.7373 29.4963 28.5389 29.6805 28.1994 29.6805C27.7256 29.6805 27.4937 29.3289 27.4937 28.6248V27.2744H30.253V25.6976C30.253 24.8843 30.1153 24.289 29.8261 23.9039C29.4405 23.384 28.8918 23.1245 28.1994 23.1245ZM28.8742 26.1267H27.4945V25.4222C27.4945 24.7181 27.726 24.3661 28.1869 24.3661C28.6431 24.3661 28.8742 24.7185 28.8742 25.4222V26.1267Z" fill="#FAFAFA"/>
</g>
<defs>
<clipPath id="clip0">
<rect width="40.9175" height="40.9175" fill="white" transform="translate(0.0824585 0.0825195)"/>
</clipPath>
</defs>
</svg>
